<svg height="496pt" viewBox="0 0 496 496" width="496pt" xmlns="http://www.w3.org/2000/svg"><path d="m72 144h56v56c0 4.417969 3.582031 8 8 8s8-3.582031 8-8v-56h56c4.417969 0 8-3.582031 8-8s-3.582031-8-8-8h-56v-56c0-4.417969-3.582031-8-8-8s-8 3.582031-8 8v56h-56c-4.417969 0-8 3.582031-8 8s3.582031 8 8 8zm0 0"/><path d="m189.65625 306.34375c-3.125-3.121094-8.1875-3.121094-11.3125 0l-42.34375 42.34375-42.34375-42.34375c-3.140625-3.03125-8.128906-2.988281-11.214844.097656-3.085937 3.085938-3.128906 8.074219-.097656 11.214844l42.34375 42.34375-42.34375 42.34375c-2.078125 2.007812-2.914062 4.984375-2.179688 7.78125.730469 2.796875 2.914063 4.980469 5.710938 5.710938 2.796875.734374 5.773438-.101563 7.78125-2.179688l42.34375-42.34375 42.34375 42.34375c3.140625 3.03125 8.128906 2.988281 11.214844-.097656 3.085937-3.085938 3.128906-8.074219.097656-11.214844l-42.34375-42.34375 42.34375-42.34375c3.121094-3.125 3.121094-8.1875 0-11.3125zm0 0"/><path d="m296 144h128c4.417969 0 8-3.582031 8-8s-3.582031-8-8-8h-128c-4.417969 0-8 3.582031-8 8s3.582031 8 8 8zm0 0"/><path d="m424 352h-128c-4.417969 0-8 3.582031-8 8s3.582031 8 8 8h128c4.417969 0 8-3.582031 8-8s-3.582031-8-8-8zm0 0"/><path d="m376 320c0 8.835938-7.164062 16-16 16s-16-7.164062-16-16 7.164062-16 16-16 16 7.164062 16 16zm0 0"/><path d="m376 400c0 8.835938-7.164062 16-16 16s-16-7.164062-16-16 7.164062-16 16-16 16 7.164062 16 16zm0 0"/><path d="m456 0h-416c-22.082031.0273438-39.9726562 17.917969-40 40v416c.0273438 22.082031 17.917969 39.972656 40 40h416c22.082031-.027344 39.972656-17.917969 40-40v-416c-.027344-22.082031-17.917969-39.9726562-40-40zm24 456c0 13.253906-10.746094 24-24 24h-416c-13.253906 0-24-10.746094-24-24v-416c0-13.253906 10.746094-24 24-24h416c13.253906 0 24 10.746094 24 24zm0 0"/><path d="m456 240h-200v-200c0-4.417969-3.582031-8-8-8s-8 3.582031-8 8v200h-200c-4.417969 0-8 3.582031-8 8s3.582031 8 8 8h200v200c0 4.417969 3.582031 8 8 8s8-3.582031 8-8v-200h200c4.417969 0 8-3.582031 8-8s-3.582031-8-8-8zm0 0"/></svg>