<svg height="512" viewBox="0 0 64 64" width="512" xmlns="http://www.w3.org/2000/svg"><path d="m46 20h6.1a5 5 0 1 0 0-2h-6.1v-10h6.1a5 5 0 1 0 0-2h-6.1v-2a1 1 0 0 0 -1-1h-24a1 1 0 0 0 -1 1v5.008c-7.127.092-18 1.225-18 4.992v36c0 3.767 10.873 4.9 18 4.992v5.008a1 1 0 0 0 1 1h24a1 1 0 0 0 1-1v-2h6.1a5 5 0 1 0 0-2h-6.1v-10h6.1a5 5 0 1 0 0-2h-6.1v-11h6.1a5 5 0 1 0 0-2h-6.1zm11-4a3 3 0 1 1 -3 3 3 3 0 0 1 3-3zm0-12a3 3 0 1 1 -3 3 3 3 0 0 1 3-3zm-36 7c10.545 0 16.633 1.942 16.992 3-.35 1.057-6.438 3-16.992 3-10.582 0-16.677-1.956-17-2.993.336-1.055 6.428-3.007 17-3.007zm17 5.458v9.527c-.3 1.053-6.4 3.015-17 3.015s-16.706-1.965-17-3v-9.543c3.7 1.953 11.717 2.543 17 2.543s13.3-.59 17-2.542zm-34 12c3.7 1.952 11.717 2.542 17 2.542s13.3-.59 17-2.542v9.526c-.3 1.052-6.4 3.016-17 3.016s-16.706-1.965-17-3zm0 21.542v-9.542c3.7 1.952 11.718 2.542 17 2.542s13.3-.59 17-2.543v9.525c-.3 1.053-6.4 3.018-17 3.018s-16.706-1.965-17-3zm40 9h-22v-4.008c7.127-.092 18-1.225 18-4.992v-36c0-3.767-10.873-4.9-18-4.992v-4.008h22zm13-5a3 3 0 1 1 -3 3 3 3 0 0 1 3-3zm0-12a3 3 0 1 1 -3 3 3 3 0 0 1 3-3zm0-13a3 3 0 1 1 -3 3 3 3 0 0 1 3-3z"/><path d="m19 23h4v2h-4z"/><path d="m19 35h4v2h-4z"/><path d="m19 47h4v2h-4z"/></svg>