<svg height="512pt" viewBox="0 -13 512 512" width="512pt" xmlns="http://www.w3.org/2000/svg"><path d="m468.925781 0h-425.851562c-23.75 0-43.074219 19.3125-43.074219 43.0625v242.265625c0 23.75 19.324219 43.074219 43.074219 43.074219h151.898437l-3.6875 63.808594h-48.898437c-25.808594 0-46.808594 21-46.808594 46.808593v31.65625c0 8.523438 6.90625 15.441407 15.441406 15.441407h289.960938c8.535156 0 15.441406-6.917969 15.441406-15.441407v-31.65625c0-25.808593-21-46.808593-46.808594-46.808593h-48.898437l-3.6875-63.808594h151.898437c23.75 0 43.074219-19.324219 43.074219-43.074219v-242.265625c0-23.75-19.324219-43.0625-43.074219-43.0625zm12.191407 285.328125c0 6.722656-5.46875 12.191406-12.191407 12.191406-3.675781 0-414.714843 0-425.851562 0-6.722657 0-12.191407-5.46875-12.191407-12.191406v-242.265625c0-6.722656 5.46875-12.179688 12.191407-12.179688h425.851562c6.722657 0 12.191407 5.457032 12.191407 12.179688zm-111.503907 137.765625c8.78125 0 15.925781 7.144531 15.925781 15.925781v16.214844c-23.53125 0-254.148437 0-259.078124 0v-16.214844c0-8.78125 7.144531-15.925781 15.925781-15.925781zm-79.835937-30.882812h-67.554688l3.6875-63.808594h60.179688zm0 0"/><path d="m360.050781 90.285156h-41.746093l-.628907-17.945312c-.472656-13.722656-11.613281-24.480469-25.355469-24.480469h-72.640624c-13.742188 0-24.882813 10.757813-25.355469 24.480469l-.628907 17.945312h-41.746093c-17.984375 0-32.601563 14.628906-32.601563 32.601563v125.042969c0 17.972656 14.617188 32.601562 32.601563 32.601562h208.101562c17.984375 0 32.601563-14.628906 32.601563-32.601562v-125.042969c0-17.972657-14.617188-32.601563-32.601563-32.601563zm1.71875 157.644532c0 .945312-.773437 1.71875-1.71875 1.71875-2.058593 0-206.003906 0-208.101562 0-.945313 0-1.71875-.773438-1.71875-1.71875v-125.042969c0-.945313.773437-1.71875 1.71875-1.71875h56.652343c8.320313 0 15.144532-6.585938 15.433594-14.894531l.96875-27.527344h61.992188l.96875 27.527344c.289062 8.308593 7.113281 14.894531 15.433594 14.894531h56.652343c.945313 0 1.71875.773437 1.71875 1.71875zm0 0"/><path d="m256 123.269531c-31.449219 0-57.042969 25.582031-57.042969 57.03125 0 31.492188 25.625 57.046875 57.042969 57.046875 31.492188 0 57.042969-25.628906 57.042969-57.046875 0-31.449219-25.59375-57.03125-57.042969-57.03125zm0 83.191407c-14.375 0-26.160156-11.710938-26.160156-26.160157 0-14.410156 11.738281-26.148437 26.160156-26.148437s26.160156 11.738281 26.160156 26.148437c0 14.441407-11.78125 26.160157-26.160156 26.160157zm0 0"/></svg>