<svg height="480pt" viewBox="0 -19 480 479" width="480pt" xmlns="http://www.w3.org/2000/svg"><path d="m144 256.5h104v16h-104zm0 0"/><path d="m144 216.5h88v16h-88zm0 0"/><path d="m456 40.5h-88v-32c0-4.417969-3.582031-8-8-8h-240c-4.417969 0-8 3.582031-8 8v32h-88c-13.253906 0-24 10.746094-24 24v240c0 13.253906 10.746094 24 24 24h176v48h-72c-4.417969 0-8 3.582031-8 8v40h-16v16h272v-16h-16v-40c0-4.417969-3.582031-8-8-8h-72v-48h176c13.253906 0 24-10.746094 24-24v-240c0-13.253906-10.746094-24-24-24zm0 16c4.417969 0 8 3.582031 8 8v200h-96v-90.160156l38.785156-46.214844c9.710938-11.617188 9.949219-28.449219.574219-40.339844-9.375-11.886718-25.796875-15.578125-39.359375-8.84375v-22.441406zm-148.886719 165.511719-24.511719-20.566407 72-85.792968 24.511719 20.566406zm-30.105469-4.375 15.128907 12.695312-18.136719 6.257813zm117.519532-99.800781-5.144532 6.121093-24.511718-20.570312 5.144531-6.125c5.683594-6.769531 15.777344-7.652344 22.542969-1.96875 6.769531 5.679687 7.652344 15.773437 1.96875 22.542969zm-266.527344-101.335938h224v77.34375l-86.800781 103.457031c-.929688 1.109375-1.546875 2.449219-1.773438 3.878907l-7.328125 46.074218c-.4375 2.769532.613282 5.566406 2.765625 7.371094 2.152344 1.800781 5.089844 2.34375 7.746094 1.425781l44.09375-15.199219c1.371094-.464843 2.589844-1.292968 3.519531-2.398437l37.777344-45.042969v95.089844h-224zm-104 40h88v208h-96v-200c0-4.417969 3.582031-8 8-8zm320 368h-208v-32h208zm-80-48h-48v-48h48zm192-64h-432c-4.417969 0-8-3.582031-8-8v-24h96v16c0 4.417969 3.582031 8 8 8h240c4.417969 0 8-3.582031 8-8v-16h96v24c0 4.417969-3.582031 8-8 8zm0 0"/><path d="m432 288.5h16v16h-16zm0 0"/><path d="m144 32.5h32v16h-32zm0 0"/><path d="m192 32.5h136v16h-136zm0 0"/><path d="m144 72.5h184v16h-184zm0 0"/><path d="m144 112.5h16v16h-16zm0 0"/><path d="m176 112.5h16v16h-16zm0 0"/><path d="m208 112.5h88v16h-88zm0 0"/><path d="m144 152.5h48v16h-48zm0 0"/><path d="m208 152.5h56v16h-56zm0 0"/></svg>