<svg id="Capa_1" enable-background="new 0 0 489.054 489.054" height="512" viewBox="0 0 489.054 489.054" width="512" xmlns="http://www.w3.org/2000/svg"><path d="m424.391 230.636v-22.333c19.195-17.646 30.279-42.417 30.643-68.488.824-51.792-40.518-95.493-92.055-97.214-25.316-.822-49.94 8.342-68.559 25.514h-3.318l-15.191-18.251c-8.319-10.053-20.715-15.835-33.764-15.749h-29.52c-13.048-.087-25.444 5.695-33.763 15.748l-15.192 18.252h-2.844c-17.848-16.3-41.103-25.409-65.274-25.565-52.762.069-95.51 42.838-95.554 95.6 0 26.29 11.391 51.72 30.391 70.056v95.668c0 26.955 21.72 49.241 48.674 49.241h16.293c24.669-.116 45.426-18.511 48.505-42.988l6.355-50.726c2.327-18.442 18.007-32.276 36.595-32.286h.119l81.563.19c11.623.013 22.556 5.517 29.49 14.844-29.409 22.384-46.677 57.218-46.685 94.177 0 65.411 53.291 118.613 118.794 118.613s118.96-53.222 118.96-118.632c0-46.02-26.663-86.01-64.663-105.671zm-236.268-173.14c6.043-7.283 15.041-11.462 24.504-11.381h29.52c9.464-.081 18.462 4.098 24.505 11.382l8.898 10.618h-96.325zm80.413 157.809-81.563-.19h-.159c-24.619-.02-45.405 18.283-48.5 42.706l-6.354 50.866c-2.324 18.468-17.988 32.346-36.602 32.428h-16.293c-20.338 0-36.674-16.9-36.674-37.241v-98.29c-.039-1.715-.798-3.333-2.091-4.46-17.922-16.008-28.224-38.859-28.353-62.889.061-46.188 37.553-83.58 83.74-83.519 21.679.029 42.5 8.475 58.073 23.557.1.093.19.027.284.125 1.149 1.156 2.729 1.778 4.357 1.717h138.434c1.556.06 3.072-.502 4.213-1.562 16.287-16.129 38.539-24.774 61.443-23.873 45.039 1.5 81.094 39.616 80.374 84.907-.384 24.181-10.409 46-28.53 61.405-1.296 1.167-2.008 2.849-1.944 4.592v19.741c-34.483-12.993-73.038-9.297-104.425 10.01-9.206-12.572-23.848-20.01-39.43-20.03zm101.555 227.622c-58.887 0-106.794-47.833-106.794-106.627s47.91-106.626 106.794-106.626 106.8 47.832 106.8 106.626-47.911 106.627-106.8 106.627z"/><path d="m347.755 293.428c-2.051-2.602-5.822-3.05-8.425-1l-49.375 38.849c-2.604 2.049-3.054 5.822-1.004 8.426.294.373.631.711 1.004 1.004l49.375 38.849c2.604 2.049 6.377 1.599 8.426-1.005s1.599-6.377-1.005-8.426l-43.382-34.133 43.382-34.133c2.605-2.048 3.057-5.82 1.01-8.425-.003-.002-.004-.004-.006-.006z"/><path d="m392.432 293.428c-2.051 2.603-1.603 6.375 1 8.426l43.382 34.133-43.382 34.133c-2.604 2.049-3.054 5.821-1.005 8.426s5.821 3.054 8.426 1.005l49.375-38.849c2.604-2.049 3.054-5.822 1.004-8.426-.294-.373-.631-.711-1.004-1.004l-49.375-38.849c-2.604-2.045-6.372-1.595-8.421 1.005z"/><path d="m379.713 272.181c-3.276-.496-6.335 1.758-6.831 5.034v.001l-17.537 115.873c-.497 3.276 1.756 6.335 5.033 6.832s6.335-1.756 6.832-5.033l17.537-115.874c.498-3.276-1.754-6.336-5.03-6.833-.002.001-.003.001-.004 0z"/><path d="m98.631 80.346c-31.833 0-57.639 25.806-57.639 57.639s25.806 57.639 57.639 57.639 57.639-25.806 57.639-57.639c-.034-31.819-25.82-57.605-57.639-57.639zm0 103.278c-25.206 0-45.639-20.433-45.639-45.639s20.433-45.639 45.639-45.639 45.639 20.433 45.639 45.639c-.028 25.195-20.445 45.611-45.639 45.639z"/><path d="m378.464 181.279c.156-12.34-9.721-22.47-22.061-22.626s-22.47 9.721-22.626 22.061c-.075 5.955 2.229 11.693 6.402 15.941 4.167 4.198 9.857 6.528 15.771 6.46h.153c5.857.084 11.506-2.167 15.7-6.255 4.233-4.081 6.635-9.701 6.661-15.581zm-15.084 7.241c-4.074 4.019-10.635 3.974-14.654-.1s-3.974-10.635.1-14.654 10.635-3.974 14.654.1c1.929 1.956 3.003 4.598 2.985 7.346-.009 2.751-1.12 5.383-3.085 7.308z"/><path d="m380.448 157.115c8.676 8.792 22.836 8.886 31.628.211 8.792-8.676 8.886-22.836.211-31.628s-22.836-8.886-31.628-.211c-4.222 4.166-6.616 9.839-6.656 15.77-.047 5.933 2.273 11.64 6.445 15.858zm8.64-23.051c1.939-1.909 4.557-2.97 7.278-2.949h.071c2.748-.01 5.383 1.09 7.308 3.051 4.02 4.075 3.975 10.637-.1 14.657s-10.637 3.975-14.657-.1c-4.019-4.075-3.975-10.636.1-14.656z"/><path d="m332.045 125.46c-8.734-8.734-22.895-8.734-31.629 0s-8.734 22.895 0 31.629 22.895 8.734 31.629 0c8.719-8.74 8.719-22.888 0-31.629zm-8.485 23.143c-4.048 4.044-10.607 4.041-14.651-.007s-4.041-10.607.007-14.651c4.045-4.041 10.599-4.041 14.645 0 4.048 3.997 4.089 10.518.092 14.566-.032.031-.062.062-.093.092z"/><path d="m356.233 123.637c12.351-.001 22.362-10.014 22.361-22.365s-10.014-22.362-22.365-22.361-22.362 10.014-22.361 22.365c0 5.93 2.357 11.618 6.55 15.811 4.185 4.208 9.88 6.567 15.815 6.55zm-7.329-29.694c4.048-4.047 10.61-4.047 14.657.001s4.047 10.61-.001 14.657-10.61 4.047-14.657-.001c-1.943-1.944-3.035-4.579-3.035-7.328-.008-2.75 1.085-5.389 3.036-7.329z"/><path d="m261.391 175.115h-68c-3.314 0-6 2.686-6 6s2.686 6 6 6h68c3.314 0 6-2.686 6-6s-2.686-6-6-6z"/></svg>