<svg height="496pt" viewBox="0 0 496 496" width="496pt" xmlns="http://www.w3.org/2000/svg"><path d="m456 112h-40v16h40c13.230469 0 24 10.769531 24 24v216h-464v-216c0-13.230469 10.769531-24 24-24h40v-16h-40c-22.054688 0-40 17.945312-40 40v256c0 22.054688 17.945312 40 40 40h104v32h-32v16h272v-16h-32v-32h104c22.054688 0 40-17.945312 40-40v-256c0-22.054688-17.945312-40-40-40zm-120 368h-176v-32h176zm120-48h-416c-13.230469 0-24-10.769531-24-24v-24h464v24c0 13.230469-10.769531 24-24 24zm0 0"/><path d="m384 400h16v16h-16zm0 0"/><path d="m416 400h16v16h-16zm0 0"/><path d="m448 400h16v16h-16zm0 0"/><path d="m352 336h112v16h-112zm0 0"/><path d="m352 304h112v16h-112zm0 0"/><path d="m368 272h96v16h-96zm0 0"/><path d="m400 240h64v16h-64zm0 0"/><path d="m96 121.792969v22.207031h-64v208h160v-85.128906c5.847656 2.847656 11.878906 5.359375 18.152344 7.296875l7.640625 29.832031h60.421875l7.640625-29.832031c7.558593-2.335938 14.863281-5.351563 21.800781-9l26.472656 15.679687 42.726563-42.71875-15.6875-26.480468c3.65625-6.929688 6.671875-14.234376 9.007812-21.792969l29.824219-7.648438v-60.421875l-29.832031-7.640625c-2.335938-7.558593-5.351563-14.863281-9.007813-21.792969l15.6875-26.480468-42.726562-42.71875-26.472656 15.679687c-6.929688-3.65625-14.234376-6.664062-21.800782-9l-7.640625-29.832031h-60.421875l-7.640625 29.832031c-7.558593 2.335938-14.863281 5.351563-21.800781 9l-26.472656-15.679687-42.726563 42.71875 15.6875 26.480468c-3.65625 6.929688-6.671875 14.234376-9.007812 21.792969zm-48 214.207031v-176h48v22.207031l29.832031 7.640625c2.335938 7.558594 5.351563 14.863282 9.007813 21.792969l-15.6875 26.480469 42.726562 42.71875 14.121094-8.359375v63.519531zm90.761719-208.640625 1.214843-4.511719c2.527344-9.390625 6.230469-18.351562 11.007813-26.648437l2.335937-4.046875-14.074218-23.746094 25.167968-25.160156 23.746094 14.066406 4.054688-2.335938c8.28125-4.777343 17.242187-8.480468 26.632812-11.007812l4.511719-1.214844 6.847656-26.753906h35.578125l6.847656 26.761719 4.511719 1.214843c9.390625 2.527344 18.351563 6.230469 26.632813 11.007813l4.054687 2.335937 23.742188-14.0625 25.167969 25.15625-14.070313 23.746094 2.335937 4.046875c4.777344 8.289063 8.480469 17.257813 11.007813 26.648438l1.214844 4.511719 26.769531 6.839843v35.578125l-26.761719 6.847656-1.214843 4.511719c-2.527344 9.390625-6.230469 18.351563-11.007813 26.648438l-2.335937 4.046875 14.074218 23.746094-25.167968 25.15625-23.746094-14.0625-4.054688 2.335937c-8.28125 4.777344-17.242187 8.480469-26.632812 11.007813l-4.511719 1.214843-6.847656 26.761719h-35.578125l-6.847656-26.761719-4.511719-1.214843c-9.390625-2.527344-18.351563-6.230469-26.632813-11.007813l-4.054687-2.335937-23.742188 14.0625-25.167969-25.15625 14.070313-23.746094-2.335937-4.046875c-4.777344-8.289063-8.480469-17.257813-11.007813-26.648438l-1.214844-4.511719-26.769531-6.839843v-35.578125zm0 0"/><path d="m248 248c52.9375 0 96-43.0625 96-96s-43.0625-96-96-96-96 43.0625-96 96 43.0625 96 96 96zm0-176c44.113281 0 80 35.886719 80 80s-35.886719 80-80 80-80-35.886719-80-80 35.886719-80 80-80zm0 0"/><path d="m248 216c35.289062 0 64-28.710938 64-64s-28.710938-64-64-64-64 28.710938-64 64 28.710938 64 64 64zm0-112c26.472656 0 48 21.527344 48 48s-21.527344 48-48 48-48-21.527344-48-48 21.527344-48 48-48zm0 0"/><path d="m224 144h16v16h-16zm0 0"/><path d="m256 144h16v16h-16zm0 0"/><path d="m64 176h16v16h-16zm0 0"/><path d="m64 208h32v16h-32zm0 0"/><path d="m64 240h32v16h-32zm0 0"/><path d="m64 272h64v16h-64zm0 0"/><path d="m64 304h96v16h-96zm0 0"/></svg>