<?xml version="1.0"?>
<svg xmlns="http://www.w3.org/2000/svg" id="outline" viewBox="0 0 512 512" width="512" height="512"><title>IT-consulting-advice-management-technology</title><path d="M360.80371,496a63.58415,63.58415,0,0,0,45.25586-18.74512L435.31445,448H448a8.00039,8.00039,0,0,0,8-8V392h24V376H456V360h24V344H456V328h24V312H456V296h24V280H456V248a8.00039,8.00039,0,0,0-8-8H424V216H408v24H392V216H376v24H360V216H344v24H320a8.00039,8.00039,0,0,0-8,8v4.07178L258.28857,220.74A79.54369,79.54369,0,0,0,272,176V64a32.03667,32.03667,0,0,0-32-32h-4.30518A32.012,32.012,0,0,0,208,16H176a64.07207,64.07207,0,0,0-64,64v96a79.54369,79.54369,0,0,0,13.71143,44.74L51.84473,263.8291A40.13417,40.13417,0,0,0,32,298.37988V488a8.00039,8.00039,0,0,0,8,8ZM264,480V436.11279l46.33789-33.16455a4.75,4.75,0,0,1,4.92285-.373l.17676.08789a5.17071,5.17071,0,0,1,2.77441,5.6289c-2.39746,11.83985-6.05664,30.13965-6.05664,30.13965A7.99986,7.99986,0,0,0,320,448h15.58105a32.1229,32.1229,0,0,0,19.99122-7.01172l20.56738-16.4541a7.09549,7.09549,0,0,1,10.33887,1.60644,7.11384,7.11384,0,0,1-.8877,8.95411l-30.8457,30.8457A47.68439,47.68439,0,0,1,320.80371,480Zm96-80V310.9873A32.11873,32.11873,0,0,0,382.9873,288H408V400Zm34.74512,65.94043a47.651,47.651,0,0,1-31.55957,14.00146c.97851-.86669,1.94189-1.75488,2.874-2.687L395.31445,448h17.3711ZM328,256H440V432H403.56006a23.03486,23.03486,0,0,0-3.769-14.73535c-.28956-.43457-.59815-.85327-.91456-1.26465H416a8.00039,8.00039,0,0,0,8-8V280a8.00039,8.00039,0,0,0-8-8H376a8.00039,8.00039,0,0,0-8,8,16.01833,16.01833,0,0,1-16,16,8.00039,8.00039,0,0,0-8,8V408a8.00039,8.00039,0,0,0,8,8h9.19385l-15.6167,12.49414A16.06181,16.06181,0,0,1,335.58105,432h-5.81933c1.24414-6.207,2.86523-14.27441,4.13183-20.53418A21.16537,21.16537,0,0,0,327.74072,392H328Zm-16,24H288v16h24v16H288v16h24v16H288v16h24v16H288v16h10.14209l-44.06445,31.53735L240,421.05322V336a8.00039,8.00039,0,0,0-8-8H207.26807l58.43774-84.40991L312,270.59521ZM232,80a11.23593,11.23593,0,0,1,8,3.31445l16,15.999V176a64,64,0,0,1-128,0V99.31348l16-15.999a11.31192,11.31192,0,0,1,16,0L172.68555,96a27.3155,27.3155,0,0,0,38.6289,0L224,83.31445A11.23593,11.23593,0,0,1,232,80ZM192,256a79.71876,79.71876,0,0,0,55.86816-22.81519l3.97608,2.31934L192,321.94531l-59.84424-86.44116,3.97608-2.31934A79.71876,79.71876,0,0,0,192,256Zm0,112a8.00039,8.00039,0,0,0,8-8V344h24v74.22974l-64-11.29395V344h24v16A8.00039,8.00039,0,0,0,192,368ZM256,64V76.68555L251.31445,72A27.17657,27.17657,0,0,0,240,65.18506V48A16.01833,16.01833,0,0,1,256,64ZM176,32h32a16.01833,16.01833,0,0,1,16,16V65.18506A27.17657,27.17657,0,0,0,212.68555,72L200,84.68555a11.31192,11.31192,0,0,1-16,0L171.31445,72a27.3155,27.3155,0,0,0-38.6289,0l-4.54785,4.54785A48.05294,48.05294,0,0,1,176,32ZM48,298.37988a24.08034,24.08034,0,0,1,11.90723-20.73047l58.387-34.05932L176.73193,328H152a8.00039,8.00039,0,0,0-8,8v67.771a23.957,23.957,0,0,1-16-22.61866V360H112v21.15234A39.9439,39.9439,0,0,0,145.04785,420.544L248,438.71191V480H144a96.10874,96.10874,0,0,1-96-96Zm0,143.25074A112.85671,112.85671,0,0,0,86.36938,480H48Z"/><rect x="376" y="328" width="16" height="48"/><rect x="144" y="120" width="32" height="16"/><path d="M192,184a8.00917,8.00917,0,0,1-8,8h-8v16h8a24.0275,24.0275,0,0,0,24-24V168H192Z"/><circle cx="160" cy="152" r="8"/><rect x="208" y="120" width="32" height="16"/><circle cx="224" cy="152" r="8"/></svg>
