<?xml version="1.0" encoding="iso-8859-1"?>
<!-- Generator: Adobe Illustrator 17.1.0, SVG Export Plug-In . SVG Version: 6.00 Build 0)  -->
<!DOCTYPE svg PUBLIC "-//W3C//DTD SVG 1.1//EN" "http://www.w3.org/Graphics/SVG/1.1/DTD/svg11.dtd">
<svg version="1.1" id="Capa_1" xmlns="http://www.w3.org/2000/svg" xmlns:xlink="http://www.w3.org/1999/xlink" x="0px" y="0px"
	 viewBox="0 0 442.964 442.964" style="enable-background:new 0 0 442.964 442.964;" xml:space="preserve">
<path d="M351.809,322.694c-33.159,0-60.136,26.977-60.136,60.135s26.977,60.135,60.136,60.135s60.136-26.977,60.136-60.135
	S384.968,322.694,351.809,322.694z M351.809,422.964c-22.131,0-40.136-18.004-40.136-40.135s18.005-40.135,40.136-40.135
	s40.136,18.004,40.136,40.135S373.94,422.964,351.809,422.964z M180.796,261.82h159.18c5.522,0,9.506,4.513,9.506,10.036v22.735
	c0,5.523-4.478,10-10,10s-10-4.477-10-10V281.82h-139v86h64.145c5.522,0,10,4.477,10,10s-4.478,10-10,10h-73.83
	c-5.523,0-10.314-4.301-10.314-9.824v-106.14C170.482,266.333,175.273,261.82,180.796,261.82z M278.025,416.82
	c0,5.523-4.478,10-10,10H167.807c-5.523,0-10-4.477-10-10s4.477-10,10-10h100.218C273.547,406.82,278.025,411.297,278.025,416.82z
	 M361.809,382.824c0,5.523-4.476,9.996-9.998,9.996h-0.004c-5.522,0-10-4.473-10-9.996s4.478-9.996,10-9.996
	S361.809,377.301,361.809,382.824z M74.419,248.294L53.042,363.82h73.946c5.523,0,10,4.477,10,10s-4.477,10-10,10H41.02
	c-2.971,0-5.788-1.435-7.688-3.719c-1.9-2.284-2.686-5.409-2.145-8.331l23.567-127.232c5.772-31.164,29.946-54.365,64.665-62.063
	c18.083-4.01,37.677-3.327,55.174,1.923c19.113,5.734,34.654,16.391,44.943,30.818c3.207,4.497,2.161,10.741-2.335,13.948
	c-4.495,3.207-10.74,2.162-13.948-2.335c-15.393-21.584-48.084-31.793-79.505-24.828C110.964,204.835,80.564,215.124,74.419,248.294
	z M143.098,159.171c18.697,0,36.254-7.537,49.437-21.223c11.371-11.804,24.635-33.626,23.254-70.553
	c-1.486-39.685-30.577-61.258-60.563-66.541c-5.432-1.222-18.254-0.89-21.154-0.488c-31.051,4.306-62.129,25.977-63.665,67.03
	c-1.381,36.926,11.884,58.749,23.254,70.552C106.844,151.634,124.401,159.171,143.098,159.171z M143.098,19.613
	c15.949,0.642,32.151,6.93,42.311,19.459c-12.324,4.938-26.962,7.822-42.311,8.235c-15.348-0.413-29.987-3.297-42.312-8.235
	C110.946,26.543,127.148,20.255,143.098,19.613z M90.393,68.145c0.148-3.95,0.675-7.645,1.527-11.092
	c14.927,6.2,32.591,9.795,50.927,10.256c0.084,0.002,0.419,0.002,0.503,0c18.336-0.461,36-4.057,50.926-10.256
	c0.852,3.448,1.379,7.142,1.527,11.092c0.886,23.668-5.225,43.008-17.672,55.929c-9.378,9.736-21.82,15.098-35.033,15.098
	s-25.654-5.362-35.033-15.098C95.618,111.153,89.507,91.813,90.393,68.145z"/>
<g>
</g>
<g>
</g>
<g>
</g>
<g>
</g>
<g>
</g>
<g>
</g>
<g>
</g>
<g>
</g>
<g>
</g>
<g>
</g>
<g>
</g>
<g>
</g>
<g>
</g>
<g>
</g>
<g>
</g>
</svg>
