<svg id="Layer_1_1_" enable-background="new 0 0 64 64" height="512" viewBox="0 0 64 64" width="512" xmlns="http://www.w3.org/2000/svg"><path d="m55 17c.265 0 .52-.105.707-.293l4-4c.188-.187.293-.442.293-.707v-4.184c1.161-.414 2-1.514 2-2.816 0-1.654-1.346-3-3-3s-3 1.346-3 3c0 1.302.839 2.402 2 2.816v3.77l-3.414 3.414h-12.119c-.726-.449-1.469-.867-2.24-1.216-.073-.033-.15-.048-.227-.062v-4.308l3.414-3.414h1.77c.414 1.161 1.514 2 2.816 2 1.654 0 3-1.346 3-3s-1.346-3-3-3c-1.302 0-2.402.839-2.816 2h-2.184c-.265 0-.52.105-.707.293l-4 4c-.188.187-.293.442-.293.707v6.17l-.661.706c-.619-.205-1.251-.374-1.892-.506l-.584-2.502c-.097-.417-.45-.726-.876-.768-.336-.033-.659-.033-.987-.049v-4.235c1.161-.414 2-1.514 2-2.816 0-1.654-1.346-3-3-3s-3 1.346-3 3c0 1.302.839 2.402 2 2.816v4.235c-.328.017-.652.016-.987.049-.426.042-.779.351-.876.768l-.584 2.502c-.64.132-1.273.301-1.891.506l-.662-.707v-6.169c0-.265-.105-.52-.293-.707l-4-4c-.187-.188-.442-.293-.707-.293h-2.184c-.414-1.161-1.514-2-2.816-2-1.654 0-3 1.346-3 3s1.346 3 3 3c1.302 0 2.402-.839 2.816-2h1.77l3.414 3.414v4.308c-.076.015-.153.029-.227.062-.771.349-1.513.767-2.24 1.216h-12.119l-3.414-3.414v-3.77c1.161-.414 2-1.514 2-2.816 0-1.654-1.346-3-3-3s-3 1.346-3 3c0 1.302.839 2.402 2 2.816v4.184c0 .265.105.52.293.707l4 4c.187.188.442.293.707.293h10.997l.7 2.304c-.49.437-.957.903-1.393 1.393l-2.424-.737c-.408-.125-.852.024-1.102.372-.387.538-.748 1.095-1.081 1.668h-3.882c-.413-1.161-1.513-2-2.815-2-1.654 0-3 1.346-3 3s1.346 3 3 3c1.302 0 2.402-.839 2.816-2h2.906c-.063.331.036.677.29.915l1.864 1.746c-.205.619-.374 1.251-.506 1.892l-2.502.584c-.417.097-.726.45-.768.876-.033.336-.033.657-.05.987h-4.234c-.414-1.161-1.514-2-2.816-2-1.654 0-3 1.346-3 3s1.346 3 3 3c1.302 0 2.402-.839 2.816-2h4.235c.017.33.017.651.05.987.042.426.351.779.768.876l2.502.584c.132.64.301 1.273.506 1.891l-1.864 1.746c-.254.238-.353.584-.29.916h-2.906c-.415-1.161-1.515-2-2.817-2-1.654 0-3 1.346-3 3s1.346 3 3 3c1.302 0 2.402-.839 2.816-2h3.882c.332.572.692 1.129 1.08 1.667.25.347.69.497 1.103.372l2.424-.736c.437.491.903.957 1.393 1.393l-.702 2.304h-10.996c-.265 0-.52.105-.707.293l-4 4c-.188.187-.293.442-.293.707v4.184c-1.161.414-2 1.514-2 2.816 0 1.654 1.346 3 3 3s3-1.346 3-3c0-1.302-.839-2.402-2-2.816v-3.77l3.414-3.414h12.119c.726.448 1.468.867 2.24 1.216.073.033.15.048.227.063v4.307l-3.414 3.414h-1.77c-.414-1.161-1.514-2-2.816-2-1.654 0-3 1.346-3 3s1.346 3 3 3c1.302 0 2.402-.839 2.816-2h2.184c.265 0 .52-.105.707-.293l4-4c.188-.187.293-.442.293-.707v-6.17l.661-.706c.619.205 1.251.374 1.892.506l.584 2.502c.097.417.45.726.876.768.336.033.657.033.987.05v4.235c-1.161.414-2 1.514-2 2.816 0 1.654 1.346 3 3 3s3-1.346 3-3c0-1.302-.839-2.402-2-2.816v-4.235c.33-.017.652-.017.987-.05.426-.042.779-.351.876-.768l.584-2.502c.64-.132 1.273-.301 1.891-.506l.662.707v6.169c0 .265.105.52.293.707l4 4c.187.188.442.293.707.293h2.184c.414 1.161 1.514 2 2.816 2 1.654 0 3-1.346 3-3s-1.346-3-3-3c-1.302 0-2.402.839-2.816 2h-1.77l-3.414-3.414v-4.307c.076-.015.153-.029.227-.062.771-.349 1.513-.767 2.24-1.216h12.119l3.414 3.413v3.77c-1.161.414-2 1.514-2 2.816 0 1.654 1.346 3 3 3s3-1.346 3-3c0-1.302-.839-2.402-2-2.816v-4.184c0-.265-.105-.52-.293-.707l-4-4c-.187-.188-.442-.293-.707-.293h-10.997l-.7-2.304c.491-.437.957-.903 1.393-1.393l2.423.737c.409.124.853-.025 1.102-.372.388-.538.749-1.096 1.081-1.668h3.882c.414 1.161 1.514 2 2.816 2 1.654 0 3-1.346 3-3s-1.346-3-3-3c-1.302 0-2.402.839-2.816 2h-2.906c.063-.331-.036-.677-.29-.915l-1.864-1.746c.205-.619.374-1.251.506-1.892l2.502-.584c.417-.097.726-.45.768-.876.033-.336.033-.657.05-.987h4.235c.414 1.161 1.514 2 2.816 2 1.654 0 3-1.346 3-3s-1.346-3-3-3c-1.302 0-2.402.839-2.816 2h-4.235c-.017-.33-.017-.652-.05-.987-.042-.426-.351-.779-.768-.876l-2.502-.584c-.132-.64-.301-1.273-.506-1.891l1.864-1.746c.254-.238.353-.584.29-.916h2.906c.414 1.161 1.514 2 2.816 2 1.654 0 3-1.346 3-3s-1.346-3-3-3c-1.302 0-2.402.839-2.816 2h-3.882c-.332-.572-.692-1.129-1.08-1.667-.25-.347-.693-.497-1.103-.372l-2.424.736c-.437-.491-.903-.957-1.393-1.393l.7-2.304zm4-13c.551 0 1 .449 1 1s-.449 1-1 1-1-.449-1-1 .449-1 1-1zm-11 0c.551 0 1 .449 1 1s-.449 1-1 1-1-.449-1-1 .449-1 1-1zm-32 2c-.551 0-1-.449-1-1s.449-1 1-1 1 .449 1 1-.449 1-1 1zm-11-2c.551 0 1 .449 1 1s-.449 1-1 1-1-.449-1-1 .449-1 1-1zm3 20c-.551 0-1-.449-1-1s.449-1 1-1 1 .449 1 1-.449 1-1 1zm0 18c-.551 0-1-.449-1-1s.449-1 1-1 1 .449 1 1-.449 1-1 1zm-3 18c-.551 0-1-.449-1-1s.449-1 1-1 1 .449 1 1-.449 1-1 1zm11 0c-.551 0-1-.449-1-1s.449-1 1-1 1 .449 1 1-.449 1-1 1zm32-2c.551 0 1 .449 1 1s-.449 1-1 1-1-.449-1-1 .449-1 1-1zm11 2c-.551 0-1-.449-1-1s.449-1 1-1 1 .449 1 1-.449 1-1 1zm-3-20c.551 0 1 .449 1 1s-.449 1-1 1-1-.449-1-1 .449-1 1-1zm0-18c.551 0 1 .449 1 1s-.449 1-1 1-1-.449-1-1 .449-1 1-1zm-24-18c.551 0 1 .449 1 1s-.449 1-1 1-1-.449-1-1 .449-1 1-1zm-27 29c-.551 0-1-.449-1-1s.449-1 1-1 1 .449 1 1-.449 1-1 1zm27 27c-.551 0-1-.449-1-1s.449-1 1-1 1 .449 1 1-.449 1-1 1zm27-29c.551 0 1 .449 1 1s-.449 1-1 1-1-.449-1-1 .449-1 1-1zm-15.41-8.521c.256.312.675.438 1.063.321l2.351-.714c.399.604.762 1.229 1.084 1.87l-1.807 1.692c-.295.276-.395.703-.252 1.082.34.905.593 1.851.752 2.812.066.398.365.718.759.81l2.427.566c.022.368.033.729.033 1.082s-.011.714-.034 1.082l-2.427.566c-.394.092-.693.412-.759.81-.159.961-.413 1.907-.752 2.812-.142.378-.042.806.252 1.082l1.807 1.692c-.323.643-.686 1.268-1.084 1.87l-2.35-.715c-.387-.117-.806.009-1.063.321-.619.752-1.314 1.448-2.069 2.069-.312.257-.439.676-.321 1.063l.714 2.351c-.604.399-1.229.762-1.87 1.084l-1.692-1.807c-.277-.295-.706-.395-1.082-.252-.905.34-1.851.593-2.812.752-.398.066-.718.365-.81.759l-.566 2.427c-.735.045-1.429.045-2.164 0l-.566-2.427c-.092-.394-.412-.693-.81-.759-.961-.159-1.907-.413-2.812-.752-.38-.143-.806-.042-1.082.252l-1.693 1.807c-.642-.322-1.267-.685-1.87-1.084l.715-2.35c.118-.387-.009-.807-.321-1.063-.752-.619-1.448-1.314-2.069-2.069-.257-.313-.677-.44-1.063-.321l-2.351.714c-.399-.604-.762-1.229-1.084-1.87l1.807-1.692c.295-.276.395-.703.252-1.082-.34-.905-.593-1.851-.752-2.812-.066-.398-.365-.718-.759-.81l-2.427-.566c-.022-.368-.033-.729-.033-1.082s.011-.714.034-1.082l2.427-.566c.394-.092.693-.412.759-.81.159-.961.413-1.907.752-2.812.142-.378.042-.806-.252-1.082l-1.807-1.692c.323-.643.686-1.268 1.084-1.87l2.35.714c.388.119.806-.008 1.063-.321.619-.752 1.315-1.448 2.069-2.069.312-.257.439-.676.321-1.063l-.714-2.351c.604-.399 1.229-.762 1.87-1.084l1.692 1.807c.276.294.704.394 1.082.252.905-.34 1.851-.593 2.812-.752.398-.066.718-.365.81-.759l.566-2.427c.735-.045 1.429-.045 2.164 0l.566 2.427c.092.394.412.693.81.759.961.159 1.907.413 2.812.752.378.141.805.042 1.082-.252l1.693-1.807c.642.322 1.267.685 1.87 1.084l-.715 2.35c-.118.387.009.807.321 1.063.752.62 1.448 1.316 2.069 2.07z"/><path d="m32 21c-4.473 0-9 1.374-9 4v15c0 2.626 4.527 4 9 4s9-1.374 9-4v-15c0-2.626-4.527-4-9-4zm0 21c-4.547 0-7-1.419-7-2v-2.4c1.736.923 4.374 1.4 7 1.4s5.264-.477 7-1.4v2.4c0 .581-2.453 2-7 2zm0-5c-4.547 0-7-1.419-7-2v-2.4c1.736.923 4.374 1.4 7 1.4s5.264-.477 7-1.4v2.4c0 .581-2.453 2-7 2zm0-5c-4.547 0-7-1.419-7-2v-2.4c1.736.923 4.374 1.4 7 1.4s5.264-.477 7-1.4v2.4c0 .581-2.453 2-7 2zm0-5c-4.547 0-7-1.419-7-2s2.453-2 7-2 7 1.419 7 2-2.453 2-7 2z"/></svg>